<svg width="45" height="81" viewBox="0 0 45 81" fill="none" xmlns="http://www.w3.org/2000/svg">
<rect width="9" height="9" fill="#D9D9D9"/>
<rect x="9" width="9" height="9" fill="#D9D9D9"/>
<rect x="18" width="9" height="9" fill="#D9D9D9"/>
<rect x="27" width="9" height="9" fill="#D9D9D9"/>
<rect x="36" width="9" height="9" fill="#D9D9D9"/>
<rect y="9" width="9" height="9" fill="#D9D9D9"/>
<rect x="9" y="9" width="9" height="9" fill="#D9D9D9"/>
<rect x="18" y="9" width="9" height="9" fill="#D9D9D9"/>
<rect x="27" y="9" width="9" height="9" fill="#D9D9D9"/>
<rect x="36" y="9" width="9" height="9" fill="#D9D9D9"/>
<rect y="18" width="9" height="9" fill="#D9D9D9"/>
<rect x="9" y="18" width="9" height="9" fill="#D9D9D9"/>
<rect x="18" y="18" width="9" height="9" fill="#D9D9D9"/>
<rect x="27" y="18" width="9" height="9" fill="#D9D9D9"/>
<rect x="36" y="18" width="9" height="9" fill="#D9D9D9"/>
<rect y="27" width="9" height="9" fill="#D9D9D9"/>
<rect x="9" y="27" width="9" height="9" fill="#D9D9D9"/>
<rect x="18" y="27" width="9" height="9" fill="#D9D9D9"/>
<rect x="27" y="27" width="9" height="9" fill="#D9D9D9"/>
<rect x="36" y="27" width="9" height="9" fill="#D9D9D9"/>
<rect y="36" width="9" height="9" fill="#D9D9D9"/>
<rect x="9" y="36" width="9" height="9" fill="#D9D9D9"/>
<rect x="18" y="36" width="9" height="9" fill="#D9D9D9"/>
<rect x="27" y="36" width="9" height="9" fill="#D9D9D9"/>
<rect x="36" y="36" width="9" height="9" fill="#D9D9D9"/>
<rect y="45" width="9" height="9" fill="#D9D9D9"/>
<rect x="9" y="45" width="9" height="9" fill="#D9D9D9"/>
<rect x="18" y="45" width="9" height="9" fill="#D9D9D9"/>
<rect x="27" y="45" width="9" height="9" fill="#D9D9D9"/>
<rect x="36" y="45" width="9" height="9" fill="#D9D9D9"/>
<rect y="54" width="9" height="9" fill="#D9D9D9"/>
<rect x="9" y="54" width="9" height="9" fill="#D9D9D9"/>
<rect x="18" y="54" width="9" height="9" fill="#D9D9D9"/>
<rect x="27" y="54" width="9" height="9" fill="#D9D9D9"/>
<rect x="36" y="54" width="9" height="9" fill="#D9D9D9"/>
<rect y="63" width="9" height="9" fill="#D9D9D9"/>
<rect x="9" y="63" width="9" height="9" fill="#D9D9D9"/>
<rect x="18" y="63" width="9" height="9" fill="#D9D9D9"/>
<rect x="27" y="63" width="9" height="9" fill="#D9D9D9"/>
<rect x="36" y="63" width="9" height="9" fill="#D9D9D9"/>
<rect y="72" width="9" height="9" fill="#D9D9D9"/>
<rect x="9" y="72" width="9" height="9" fill="#D9D9D9"/>
<rect x="18" y="72" width="9" height="9" fill="#D9D9D9"/>
<rect x="27" y="72" width="9" height="9" fill="#D9D9D9"/>
<rect x="36" y="72" width="9" height="9" fill="#D9D9D9"/>
</svg>
