<svg width="12" height="11" viewBox="0 0 12 11" fill="none" xmlns="http://www.w3.org/2000/svg">
<path id="Vector" d="M7.23135 3.20369V2.02775C7.23135 1.71587 7.10746 1.41676 6.88693 1.19623C6.66639 0.9757 6.36729 0.851807 6.05541 0.851807H1.93961C1.62773 0.851807 1.32863 0.9757 1.1081 1.19623C0.887565 1.41676 0.763672 1.71587 0.763672 2.02775V9.0834C0.763672 9.39528 0.887565 9.69438 1.1081 9.91491C1.32863 10.1354 1.62773 10.2593 1.93961 10.2593H6.05541C6.36729 10.2593 6.66639 10.1354 6.88693 9.91491C7.10746 9.69438 7.23135 9.39528 7.23135 9.0834V7.90746M4.2915 5.55557H11.3471M11.3471 5.55557L9.58323 3.79166M11.3471 5.55557L9.58323 7.31949" stroke="#E4E4E7" stroke-width="0.881956" stroke-linecap="round" stroke-linejoin="round"/>
</svg>
